<svg className="w-6 h-6" fill="currentColor" viewBox="0 0 24 24">
    <path d="M17.472 14.382c-.297-.149-1.758-.867-2.03-.967-.273-.099-.471-.148-.67.15-.197.297-.767.966-.94 1.164-.173.199-.347.223-.644.075-.297-.15-1.255-.463-2.39-1.475-.883-.788-1.48-1.761-1.653-2.059-.173-.297-.018-.458.13-.606.134-.133.298-.347.446-.52.149-.174.198-.298.298-.497.099-.198.05-.371-.025-.52-.075-.149-.669-1.612-.916-2.207-.242-.579-.487-.5-.669-.51-.173-.008-.371-.01-.57-.01-.198 0-.52.074-.792.372-.272.297-1.04 1.016-1.04 2.479 0 1.462 1.065 2.875 1.213 3.074.149.198 2.096 3.2 5.077 4.487.709.306 1.262.489 1.694.625.712.227 1.36.195 1.871.118.571-.085 1.758-.719 2.006-1.413.248-.694.248-1.289.173-1.413-.074-.124-.272-.198-.57-.347m-6.29-3.43c.173.246.694.783.95.997.254.215.51.322.766.322.254 0 .51-.107.765-.322.509-.43 1.02-1.07 1.02-1.07.173-.215.347-.143.347.018 0 .161-.02.215-.124.339-.104.124-.198.248-.248.298l-.05.05c-.173.161-.347.321-.52.482-.025.025-.05.05-.074.05-.025 0-.05-.025-.074-.05l-.422-.397c-.322-.298-.744-.694-.97-.91-.025-.024-.05-.05-.025-.074.025-.025.05 0 .074.025.322.298.744.694.969.91.025.025.05.05.075.05.025 0 .05-.025.074-.05.174-.16.347-.32.521-.482.05-.05.099-.124.148-.173.05-.05.1-.125.15-.174.05-.05.074-.1.05-.125-.025-.025-.05 0-.1.05-.05.05-.124.124-.174.174-.173.16-.347.32-.52.481-.025.025-.05.05-.075.05-.025 0-.05-.025-.074-.05-.322-.298-.744-.694-.97-.91-.025-.024-.05-.05-.025-.074.025-.025.05 0 .074.025z"/>
</svg>