<svg xmlns="http://www.w3.org/2000/svg" width="1215" height="500" viewBox="0 0 1215 500">
  <defs>
    <style>
      .cls-1 {
        fill: #23338c;
      }

      .cls-1, .cls-2, .cls-3, .cls-4, .cls-5 {
        fill-rule: evenodd;
      }

      .cls-2, .cls-5 {
        fill: #0d0d0d;
      }

      .cls-3 {
        fill: #c7c8cc;
      }

      .cls-4 {
        fill: #f2f2f2;
      }

      .cls-5 {
        mix-blend-mode: difference;
      }
    </style>
  </defs>
  <path id="engranaje_1" data-name="engranaje 1" class="cls-1" d="M457.166,250.1q0,6.583-.41,13.067L500,280.142l-1.779,21.276-48.286,2.844a203.831,203.831,0,0,1-16.246,41.2l34.282,33.974-12.455,17.73-44.642-17.254a207.306,207.306,0,0,1-31.062,30.719L396.8,455.674,379,468.085l-34.012-34.944a205.4,205.4,0,0,1-42.337,16.081l-1.942,47.232L279.359,500l-17.592-44.51q-5.467.285-11.007,0.287a208.605,208.605,0,0,1-31.979-2.454l-23.052,43.131-21.352-5.319,1.815-49.189c-13.817-5.337-39.107-20.144-39.107-20.144l-35.662,30.326L83.63,437.943l21.725-41.865S85.3,373.979,77.17,361.422L32.028,374.113,21.352,352.837,58.946,326.21a203.67,203.67,0,0,1-12.429-46.219L0,274.823v-23.05l44.57-11.15a204.725,204.725,0,0,1,6.953-44.449L12.456,170.213l8.9-21.277,44.484,7.092c6.952-13.58,16.318-25.545,26-37.174l-26-39.067L81.851,63.83,119.961,90.99A206.706,206.706,0,0,1,158.7,65.971l-7.452-44.695L172.6,12.411l24.82,38.952c14.864-3.951,28.405-6.509,44.575-7.037L254.448,0H275.8l7.117,47.872A196.368,196.368,0,0,1,327.4,60.284L357.651,23.05l17.794,8.865L363.033,77.489c13.49,8.73,24.475,17.355,35.543,28.894l42.7-21.277,12.456,17.731L424.35,138.785a204.591,204.591,0,0,1,20.227,40.426l48.305-3.679,5.339,23.05-43.489,19.843A206.4,206.4,0,0,1,457.166,250.1ZM250.89,78.014c-95.324,0-172.6,77-172.6,171.986s77.274,171.986,172.6,171.986,172.6-77,172.6-171.986S346.213,78.014,250.89,78.014Z"/>
  <path id="Elipse_1_copia" data-name="Elipse 1 copia" class="cls-2" d="M403.015,289.966a157.551,157.551,0,0,1-305,.108Z"/>
  <path id="Elipse_2" data-name="Elipse 2" class="cls-3" d="M406,279c1.594-8.989,2-19.053,2-28.5a157.5,157.5,0,0,0-315,0c0,9.558.369,19.411,2,28.5H406Z"/>
  <path id="MEL" class="cls-2" d="M402.038,269.664L400.76,279h-81.1l14.467-102.587h26.943l-13.19,93.248h54.159ZM291.452,204.433l2.692-18.678H267.065l-3.971,28.017h18.053l-1.278,9.339H261.816l-6.662,46.553h27.079l2.693-18.678h27.079l-2.269,15.99L296.41,279H226.933L241.4,176.416h69.477l9.923,12.028-2.269,15.989H291.452ZM188.23,279l13.19-93.248H198l-15.765,7.5L170.177,279H143.235l13.189-93.248h-3.556l-15.629,7.5L125.182,279H98.1l14.467-102.587h27.08l-0.853,6.368,13.3-6.368h32.551l-0.853,6.368,13.3-6.368h21.062l9.923,12.028L215.31,279H188.23Z"/>
  <path id="e_hijos" data-name="e hijos" class="cls-4" d="M368.275,344.341l-10.8,5.04h-24.66l-9.42-5.04,2.28-3.54,8.58,4.62h13.379l1.141-7.92h-18.6l-4.38-5.1,0.365-2.614-5.405-2.906-2.46,17.4-5.82,5.1H287.1l-3.347-3.9-26.712,12.477-1.32-3.54,9.18-4.26,0.575-4.073-7.055,3.293h-10.38l0.465-3.3-7.064,3.3h-10.38l3.36-23.7h-5.46l-6.84,3.18-2.88,20.52h-11.88l6.12-43.5h11.88l-2.64,18.54,5.88-2.7h13.14l4.38,5.1-2.46,17.4,5.467-2.555,2.812-19.945h11.88l-3.18,22.5,5.463-2.574,2.817-19.926H280.8l-3.18,22.5,5.467-2.555,2.092-14.845,5.82-5.1h28.98l7.693,4.142,4.727-4.142h21.06l9.36,5.04-2.22,3.54-8.64-4.62h-13.38l-1.14,7.86H356.1l4.38,5.16-0.78,5.52,7.32-3.42Zm-71.04-18.66-2.82,19.74h11.82l2.82-19.74h-11.82Zm-23.819-7.92,0.54-3.96h3.96l-0.54,3.96h-3.96Zm-16.98,0,0.54-3.96h3.96l-0.54,3.96h-3.96ZM136.2,349.381l-4.38-5.1,2.46-17.46,5.82-5.1h25.38l4.38,5.1-1.38,9.54-5.76,5.1h-18.6l-0.6,3.96h21.24l9.96-4.62,1.26,3.54-10.8,5.04H136.2Zm20.28-11.88,1.68-11.82h-11.82l-1.68,11.82h11.82Z"/>
  <path id="metalurgica" class="cls-2" d="M1024.29,142.856l-13.17,6.534H998.453l0.44-3.5-7.1,3.5H975.76l-4.084-5.053-10.19,5.053H926.129l-4.084-5.053-10.19,5.053H899.191l0.567-4.275-29.336,14.543H857.831l0.732-5.134h11.493l8.272-4.123,0.586-4.511-7.1,3.5H855.782l-5.344-6.612,3-22.635,7.1-6.612h30.965l5.344,6.612-3,22.558,6.671-3.312,3.431-25.858h14.494l-3.879,29.17,6.674-3.342,2.548-19.216,7.1-6.612h30.965l5.344,6.612-1.171,8.712h-14.5l1.391-10.19H938.5l-3.44,25.591h25.914l9.893-4.876,2.551-19.237,7.1-6.612h30.961l5.35,6.612-3,22.558,8.93-4.434ZM868.153,118.665l-3.44,25.591h6.661l8.345-4.122,2.855-21.469H868.153Zm119.979,0-3.441,25.591h6.662l8.345-4.122,2.852-21.469H988.132ZM909.439,108.4l0.659-5.134h4.832l-0.659,5.134h-4.832Zm-77.887,20.458,1.391-10.19h-6.662l-8.418,4.122-3.514,26.6H799.928l0.567-4.274-8.619,4.274H779.212l0.439-3.5-7.1,3.5H756.519l-4.084-5.053-10.19,5.053H729.581l0.566-4.273-8.618,4.273H708.865l0.439-3.5-7.1,3.5H686.172l-4.084-5.053L671.9,149.39H655.867l-4.084-5.053-10.191,5.053H606.235l-4.084-5.053-10.189,5.053H579.3l4.1-30.725h-1.83l-8.419,4.122-3.514,26.6H555.213l4.1-30.725h-1.9l-8.346,4.122-3.513,26.6h-14.5l3.88-29.247,7.1-6.612h8.272l-0.513,3.5,7.174-3.5h17.423l-0.513,3.5,7.247-3.5h11.2l5.343,6.612-3,22.558,6.671-3.312,2.552-19.246,7.1-6.612h30.965l5.344,6.612-1.683,12.368-7.028,6.611H615.9l-0.732,5.134H641.08l9.889-4.874,4.751-36.119h14.421l-1.317,10.268h9.662l-0.658,5.134h-9.663l-3.441,25.591h6.735l9.819-4.869,2.551-19.244,7.1-6.612H721.9l5.344,6.612-3,22.558,6.668-3.31L737.048,93h14.494L744.954,142.7l6.675-3.342,3.426-25.828h14.494l-4.1,30.725h6.661l8.345-4.122,3.514-26.6h14.494l-3.879,29.17,6.67-3.312,2.553-19.246,7.1-6.612h8.2l-0.512,3.5,7.247-3.5h16.032l5.343,6.612-1.171,8.712H831.552Zm-200.574,5.134,2.05-15.324H618.607l-2.05,15.324h14.421Zm67.565-15.324-3.44,25.591h6.661l8.345-4.122,2.855-21.469H698.543Z"/>
  <path id="LOBATO" class="cls-2" d="M1187.4,412.329l-16.87,16.395h-73.57l-12.7-16.395,13.57-107.051,16.87-16.4h73.57l12.7,16.4Zm-54.79-110.716L1118,415.994h34.44l14.61-114.381h-34.44Zm-83.48,0-16.18,127.111H998.514l16.176-127.111H980.425l1.565-12.73h103.14l-1.56,12.73h-34.44Zm-134.1,127.111,9.74-76.189H890.33l-9.74,76.189H846.325l15.654-123.446,16.871-16.4h73.573l12.7,16.4L949.466,428.724H915.028ZM896.765,301.613l-4.87,38.192h34.439l4.87-38.192H896.765Zm-81.224,38.192,25.394,15.045-7.3,57.479-16.872,16.395H728.4l17.741-139.841H834.5l12.7,16.4-2.435,19.289Zm-51.31,76.189h34.438l8.175-63.459H791.017l-20,10.223Zm14.61-114.381-6.087,46.871,36.873-19.095,3.653-27.776H778.841ZM698.834,428.724H625.261l-12.7-16.395,13.566-107.051L643,288.883h73.573l12.7,16.4L715.705,412.329ZM660.917,301.613l-14.61,114.381h34.438l14.611-114.381H660.917ZM595.694,428.724H492.553l17.741-139.841h34.265L528.383,415.994H597.26Z"/>
  <path id="EDUARDO" class="cls-5" d="M1203.47,265.682l-14.33,13.683h-62.51l-10.78-13.683,11.52-89.341,14.34-13.682h62.5L1215,176.341Zm-46.54-92.4-12.42,95.457h29.26l12.41-95.457h-29.25Zm-67.98,106.082h-75.07l15.08-116.706h65.31l19.21,24.307-10.19,78.716Zm-32.21-106.082-12.42,95.457h29.26L1086,173.283h-29.26Zm-69.011,31.873,21.571,12.556-7.98,61.653H972.065l8.275-63.585H966.893L949.9,224.312l-7.093,55.053H913.7l15.073-116.706h75.072l10.78,13.682-2.07,16.1Zm-31.18-31.873L951.377,212.4l31.328-15.937,3.1-23.18H956.549ZM871.877,279.365l8.275-63.585H850.893l-8.275,63.585H813.507l13.3-103.024,14.334-13.682h62.508l10.787,13.682-13.3,103.024H871.877ZM856.36,173.283l-4.137,31.873h29.259l4.137-31.873H856.36ZM771.688,279.365l0.887-7.244-14.334,7.244H725.879l-10.788-13.683,13.3-103.023H757.5L743.759,268.74h13.6l16.846-8.531,12.561-97.55H816.02L800.947,279.365H771.688Zm-83.49,0H613.13L628.2,162.659h65.316l19.21,24.307-10.2,78.716ZM655.984,173.283L643.571,268.74H672.83l12.412-95.457H655.984Zm-73.738,21.249,2.808-21.249H555.795l-4.138,31.873h19.506l-1.33,10.624h-19.5l-6.946,52.96h29.259l2.808-21.248h29.259l-2.365,18.19-14.334,13.683H512.941l15.073-116.706h75.068l10.787,13.682-2.364,18.191H582.246Z"/>
  <path id="e_hijos-2" data-name="e hijos" class="cls-2" d="M962.671,481.183L950.662,487.4H923.241l-10.475-6.217,2.535-4.367,9.541,5.7H939.72l1.268-9.77H920.305l-4.87-6.292,0.406-3.224-6.01-3.586L907.1,481.109l-6.472,6.291H872.4l-3.721-4.807-29.7,15.392-1.467-4.367,10.207-5.256,0.64-5.023-7.844,4.061H828.97l0.517-4.067-7.855,4.067H810.09l3.736-29.237h-6.072l-7.605,3.923-3.2,25.314h-13.21l6.805-53.663h13.21l-2.935,22.872,6.538-3.331h14.611l4.871,6.291L824.1,481.035l6.08-3.152,3.127-24.6h13.21l-3.536,27.757,6.074-3.175,3.132-24.582H865.4l-3.536,27.757,6.079-3.152,2.326-18.314,6.472-6.291h32.225l8.554,5.11,5.256-5.11h23.418L956.6,459.5l-2.469,4.367-9.607-5.7H929.646l-1.268,9.7h20.749L954,474.225l-0.868,6.81,8.14-4.219Zm-78.993-23.02-3.136,24.352h13.143l3.136-24.352H883.678Zm-26.487-9.77,0.6-4.886h4.4l-0.6,4.886h-4.4Zm-18.88,0,0.6-4.886h4.4l-0.6,4.886h-4.4ZM704.61,487.4l-4.87-6.291,2.735-21.54,6.472-6.291h28.221l4.871,6.291L740.5,471.338l-6.4,6.292H713.417l-0.667,4.885h23.618l11.075-5.7,1.4,4.367L736.835,487.4H704.61Zm22.551-14.655,1.868-14.582H715.885l-1.868,14.582h13.144Z"/>
  <path id="Forma_320_1" data-name="Forma 320 1" class="cls-1" d="M990.306,464.711l3.051-19.446H1179.42l-3.06,19.446H990.306ZM485,487.4l3.05-19.447H678.175l-3.05,19.447H485Zm3.05-22.688,3.05-19.446H681.226l-3.051,19.446H488.05Zm688.31,3.241-3.05,19.447H987.256l3.05-19.447H1176.36Z"/>
</svg>
