<svg xmlns="http://www.w3.org/2000/svg" width="500" height="500" viewBox="0 0 500 500">
  <defs>
    <style>
      .cls-1 {
        fill: #23338c;
      }

      .cls-1, .cls-2, .cls-3 {
        fill-rule: evenodd;
      }

      .cls-2, .cls-4 {
        fill: #0d0d0d;
      }

      .cls-3 {
        fill: #c7c8cc;
      }

      .cls-4 {
        font-size: 138px;
      }

      .cls-4, .cls-5 {
        font-family: "Nominal BRK";
      }

      .cls-5 {
        font-size: 60px;
        fill: #f2f2f2;
      }
    </style>
  </defs>
  <path id="engranaje_1" data-name="engranaje 1" class="cls-1" d="M457.166,250.1q0,6.583-.41,13.067L500,280.142l-1.779,21.276-48.286,2.844a203.831,203.831,0,0,1-16.246,41.2l34.282,33.974-12.455,17.73-44.642-17.254a207.306,207.306,0,0,1-31.062,30.719L396.8,455.674,379,468.085l-34.012-34.944a205.4,205.4,0,0,1-42.337,16.081l-1.942,47.232L279.359,500l-17.592-44.51q-5.467.285-11.007,0.287a208.605,208.605,0,0,1-31.979-2.454l-23.052,43.131-21.352-5.319,1.815-49.189c-13.817-5.337-39.107-20.144-39.107-20.144l-35.662,30.326L83.63,437.943l21.725-41.865S85.3,373.979,77.17,361.422L32.028,374.113,21.352,352.837,58.946,326.21a203.67,203.67,0,0,1-12.429-46.219L0,274.823v-23.05l44.57-11.15a204.725,204.725,0,0,1,6.953-44.449L12.456,170.213l8.9-21.277,44.484,7.092c6.952-13.58,16.318-25.545,26-37.174l-26-39.067L81.851,63.83,119.961,90.99A206.706,206.706,0,0,1,158.7,65.971l-7.452-44.695L172.6,12.411l24.82,38.952c14.864-3.951,28.405-6.509,44.575-7.037L254.448,0H275.8l7.117,47.872A196.368,196.368,0,0,1,327.4,60.284L357.651,23.05l17.794,8.865L363.033,77.489c13.49,8.73,24.475,17.355,35.543,28.894l42.7-21.277,12.456,17.731L424.35,138.785a204.591,204.591,0,0,1,20.227,40.426l48.305-3.679,5.339,23.05-43.489,19.843A206.4,206.4,0,0,1,457.166,250.1ZM250.89,78.014c-95.324,0-172.6,77-172.6,171.986s77.274,171.986,172.6,171.986,172.6-77,172.6-171.986S346.213,78.014,250.89,78.014Z"/>
  <path id="Elipse_1_copia" data-name="Elipse 1 copia" class="cls-2" d="M403.015,289.966a157.551,157.551,0,0,1-305,.108Z"/>
  <path id="Elipse_2" data-name="Elipse 2" class="cls-3" d="M406,279c1.594-8.989,2-19.053,2-28.5a157.5,157.5,0,0,0-315,0c0,9.558.369,19.411,2,28.5H406Z"/>
  <text id="MEL" class="cls-4" x="96.407" y="278.887">MEL</text>
  <text id="e_hijos" data-name="e hijos" class="cls-5" x="131.097" y="349.38">e hijos</text>
</svg>
